<svg id="Layer_1" xmlns="http://www.w3.org/2000/svg" viewBox="488.8 124.6 40 40"><style>.st0{fill:#79776b}.st1,.st2,.st3{fill:none;stroke:#79776b;stroke-width:3;stroke-linecap:round;stroke-linejoin:round;stroke-miterlimit:10}.st2,.st3{stroke-width:5}.st3{stroke-width:7}</style><path class="st0" d="M528.7 128.2c-.2-.4-.6-.7-1-.7H490c-.5 0-.9.3-1 .7-.2.4-.1.9.2 1.2l14.5 15.3v15.5c0 .5.3.9.7 1.1l8.1 3.2c.1.1.3.1.4.1.2 0 .4-.1.6-.2.3-.2.5-.6.5-.9v-18.8l14.5-15.3c.3-.3.3-.8.2-1.2zm-22.9 31.3v-14.1h5.9v16.4l-5.9-2.3zm6.5-16.4h-7.2l-12.7-13.4H525l-12.7 13.4z"/></svg>