<?xml version="1.0" encoding="utf-8"?>
<!-- Generator: Adobe Illustrator 19.2.0, SVG Export Plug-In . SVG Version: 6.00 Build 0)  -->
<svg version="1.1" xmlns="http://www.w3.org/2000/svg" xmlns:xlink="http://www.w3.org/1999/xlink" x="0px" y="0px"
	 viewBox="0 0 780 50" style="enable-background:new 0 0 780 50;" xml:space="preserve">
<style type="text/css">
	.st0{fill:#BAB9AF;}
	.st1{fill:none;stroke:#BAB9AF;stroke-width:2;}
	.st2{fill:none;stroke:#BAB9AF;stroke-width:2;stroke-linejoin:round;}
	.st3{fill:#43423F;}
	.st4{fill:none;stroke:#43423F;stroke-width:2;}
	.st5{fill:none;stroke:#43423F;stroke-width:2;stroke-linejoin:round;}
	.st6{fill:none;stroke:#43423F;}
	.st7{fill:#F15B26;}
	.st8{fill:#FFFFFF;}
	.st9{fill:none;stroke:#FFFFFF;stroke-width:2;}
	.st10{fill:none;stroke:#FFFFFF;stroke-width:2;stroke-linejoin:round;}
	.st11{fill:none;stroke:#FFFFFF;}
	.st12{fill:#231F20;}
	.st13{fill:#BAB9AF;stroke:#F4F8F8;}
	.st14{fill:none;stroke:#7A786C;}
	.st15{fill:none;stroke:#7A786C;stroke-linejoin:round;}
	.st16{fill:none;stroke:#FFFFFF;stroke-linejoin:round;}
</style>
<g id="vehicle">
	<g id="v3-_x2B_-mobile">
		<g id="Desktop---Step-1" transform="translate(-332.000000, -1948.000000)">
			<g id="Join" transform="translate(0.000000, 1361.000000)">
				<g id="Group" transform="translate(315.000000, 417.000000)">
					<g id="Got-a-bike-or-car_x3F_-P-_x2B_-Car" transform="translate(0.000000, 142.000000)">
						<g id="Car">
							<g id="Truck" transform="translate(18.000000, 29.000000)">
								<g id="Group-21">
									<path id="Fill-1" class="st0" d="M19,24.5c-2.8,0-5,2.2-5,5s2.2,5,5,5s5-2.2,5-5S21.8,24.5,19,24.5 M19,26.5
										c1.7,0,3,1.3,3,3s-1.3,3-3,3c-1.7,0-3-1.3-3-3S17.3,26.5,19,26.5"/>
									<path id="Fill-3" class="st0" d="M36,29.5c0,2.8,2.2,5,5,5c2.8,0,5-2.2,5-5s-2.2-5-5-5C38.2,24.5,36,26.7,36,29.5z
										 M44,29.5c0,1.7-1.3,3-3,3s-3-1.3-3-3s1.3-3,3-3S44,27.8,44,29.5z"/>
									<path id="Stroke-5" class="st1" d="M44.9,29.5c4.1,0,5.1-1.2,5.1-4.5c0-4.6-2.1-4.5-6.9-4.5H11.6C9.2,20.5,8,21.6,8,23v4.6
										c0,1.4,1.1,1.9,3.4,1.9h3.2"/>
									<path id="Stroke-7" class="st1" d="M23.1,29.5h13.4"/>
									<path id="Stroke-9" class="st2" d="M45.1,20.4L38,13.5l-5,0"/>
									<path id="Stroke-11" class="st1" d="M30,20.5v-7H8v9.7"/>
								</g>
							</g>
						</g>
					</g>
				</g>
			</g>
		</g>
	</g>
</g>
<g id="m-vehicle">
	<g id="v3-_x2B_-mobile_1_">
		<g id="Desktop---Step-1_1_" transform="translate(-692.000000, -1460.000000)">
			<g id="Join_1_" transform="translate(0.000000, 1361.000000)">
				
					<g id="We_x27_re-making-real-fo-_x2B_-ApplyNow_x5F_CTA-_x2B_-Truck" transform="translate(420.000000, 100.000000)">
					<g id="Truck_1_" transform="translate(272.000000, 0.000000)">
						<g id="Group-21_1_">
							<path id="Fill-1_1_" class="st3" d="M87.5,31.5c-2.8,0-5,2.2-5,5s2.2,5,5,5s5-2.2,5-5S90.3,31.5,87.5,31.5 M87.5,33.5
								c1.7,0,3,1.3,3,3s-1.3,3-3,3s-3-1.3-3-3S85.8,33.5,87.5,33.5"/>
							<path id="Fill-3_1_" class="st3" d="M109.5,31.5c-2.8,0-5,2.2-5,5s2.2,5,5,5s5-2.2,5-5S112.3,31.5,109.5,31.5 M109.5,33.5
								c1.7,0,3,1.3,3,3s-1.3,3-3,3s-3-1.3-3-3S107.8,33.5,109.5,33.5"/>
							<path id="Stroke-5_1_" class="st4" d="M113.4,36.5c4.1,0,5.1-1.2,5.1-4.5c0-4.6-2.1-4.5-6.9-4.5H80.1c-2.4,0-3.6,1.1-3.6,2.5
								v4.6c0,1.4,1.1,1.9,3.4,1.9h3.2"/>
							<path id="Stroke-7_1_" class="st4" d="M91.6,36.5h13.4"/>
							<path id="Stroke-9_1_" class="st5" d="M113.6,27.4l-7.1-6.9h-4.8"/>
							<path id="Stroke-11_1_" class="st4" d="M101.5,27.5v-13h-25v15.7"/>
							<path id="Stroke-13" class="st4" d="M96.5,13.5c0-3.9-3.4-7-7.5-7s-7.5,3.1-7.5,7"/>
							<path id="Stroke-15" class="st6" d="M61.5,36h12"/>
							<path id="Stroke-17" class="st6" d="M68.5,30h5"/>
							<path id="Stroke-19" class="st6" d="M70.5,24h3"/>
						</g>
						<path id="M" class="st7" d="M86.2,23.7h1.1v-3.6l1.4,3.6h0.9l1.4-3.6v3.6h1.2v-5.4h-1.5L89.2,22l-1.5-3.7h-1.6V23.7z"/>
					</g>
				</g>
			</g>
		</g>
	</g>
</g>
<g id="m-vehicle-white">
	<g id="v3-_x2B_-mobile_2_">
		<g id="Desktop---Step-1_2_" transform="translate(-692.000000, -204.000000)">
			<g id="Intro" transform="translate(0.000000, 94.000000)">
				<g id="Truck_2_" transform="translate(692.000000, 111.000000)">
					<g id="Group-21_2_">
						<path id="Fill-1_2_" class="st8" d="M147.5,31.3c-2.8,0-5,2.2-5,4.9c0,2.7,2.2,4.9,5,4.9c2.8,0,5-2.2,5-4.9
							C152.5,33.5,150.3,31.3,147.5,31.3 M147.5,33.2c1.7,0,3,1.3,3,2.9s-1.3,2.9-3,2.9c-1.7,0-3-1.3-3-2.9S145.8,33.2,147.5,33.2"
							/>
						<path id="Fill-3_2_" class="st8" d="M169.5,31.3c-2.8,0-5,2.2-5,4.9c0,2.7,2.2,4.9,5,4.9c2.8,0,5-2.2,5-4.9
							C174.5,33.5,172.3,31.3,169.5,31.3 M169.5,33.2c1.7,0,3,1.3,3,2.9s-1.3,2.9-3,2.9c-1.7,0-3-1.3-3-2.9S167.8,33.2,169.5,33.2"
							/>
						<path id="Stroke-5_2_" class="st9" d="M173.4,36.1c4.1,0,5.1-1.2,5.1-4.4c0-4.5-2.1-4.4-6.9-4.4h-31.5c-2.4,0-3.6,1-3.6,2.4
							v4.5c0,1.4,1.1,1.9,3.4,1.9h3.2"/>
						<path id="Stroke-7_2_" class="st9" d="M151.6,36.1h13.4"/>
						<path id="Stroke-9_2_" class="st10" d="M173.6,27.3l-7.1-6.7h-4.8"/>
						<path id="Stroke-11_2_" class="st9" d="M161.5,27.4V14.8h-25v15.3"/>
						<path id="Stroke-13_1_" class="st9" d="M156.5,13.8c0-3.8-3.4-6.8-7.5-6.8c-4.1,0-7.5,3-7.5,6.8"/>
						<path id="Stroke-15_1_" class="st11" d="M121.5,35.7h12"/>
						<path id="Stroke-17_1_" class="st11" d="M128.5,29.8h5"/>
						<path id="Stroke-19_1_" class="st11" d="M130.5,24h3"/>
					</g>
					<path id="M_1_" class="st8" d="M146.2,23.7h1.1v-3.5l1.4,3.5h0.9l1.4-3.5v3.5h1.2v-5.2h-1.5l-1.5,3.6l-1.5-3.6h-1.6V23.7z"/>
				</g>
			</g>
		</g>
	</g>
</g>
<g id="building">
	<g id="v3-_x2B_-mobile_3_">
		<g id="Desktop---Step-1-Copy-3" transform="translate(-697.000000, -847.000000)">
			<g id="Strata-1" transform="translate(-2.000000, 748.000000)">
				<g id="header" transform="translate(510.000000, 99.000000)">
					<g id="work-icon" transform="translate(189.000000, 0.000000)">
						<g id="Layer_1_1_">
							<g id="Group_1_">
								<path id="Shape" class="st12" d="M224.1,45.5h-11.4v-8.7h-9.3v8.7h-10.3c-0.3,0-0.6-0.2-0.6-0.5c0-0.3,0.2-0.5,0.6-0.5h9.2
									v-8.7h11.5v8.7h9.2V5.6h-30v5.6c0,0.3-0.2,0.5-0.6,0.5s-0.6-0.2-0.6-0.5V4.5h32.3V45.5L224.1,45.5z"/>
								<path id="Shape_1_" class="st12" d="M233.5,45.5h-10v-1.1h8.8V15.5h-8.8v-1.1h10V45.5z"/>
								<g id="Shape_2_" transform="translate(11.557377, 4.880952)">
									<path class="st12" d="M187,9.7c-0.3,0-0.6-0.2-0.6-0.5V5c0-0.3,0.2-0.5,0.6-0.5c0.3,0,0.6,0.2,0.6,0.5v4.2
										C187.6,9.5,187.3,9.7,187,9.7L187,9.7z"/>
									<path class="st12" d="M193.4,9.7c-0.3,0-0.6-0.2-0.6-0.5V5c0-0.3,0.2-0.5,0.6-0.5c0.3,0,0.6,0.2,0.6,0.5v4.2
										C193.9,9.5,193.7,9.7,193.4,9.7L193.4,9.7z"/>
									<path class="st12" d="M199.7,9.7c-0.3,0-0.6-0.2-0.6-0.5V5c0-0.3,0.2-0.5,0.6-0.5c0.3,0,0.6,0.2,0.6,0.5v4.2
										C200.3,9.5,200,9.7,199.7,9.7L199.7,9.7z"/>
									<path class="st12" d="M206.1,9.7c-0.3,0-0.6-0.2-0.6-0.5V5c0-0.3,0.2-0.5,0.6-0.5c0.3,0,0.6,0.2,0.6,0.5v4.2
										C206.6,9.5,206.4,9.7,206.1,9.7L206.1,9.7z"/>
								</g>
								<path id="Shape_3_" class="st12" d="M204.9,23.8c-0.3,0-0.6-0.2-0.6-0.5V19c0-0.3,0.2-0.5,0.6-0.5s0.6,0.2,0.6,0.5v4.2
									C205.5,23.5,205.2,23.8,204.9,23.8L204.9,23.8z"/>
								<path id="Shape_4_" class="st12" d="M211.3,23.8c-0.3,0-0.6-0.2-0.6-0.5V19c0-0.3,0.2-0.5,0.6-0.5c0.3,0,0.6,0.2,0.6,0.5
									v4.2C211.8,23.5,211.6,23.8,211.3,23.8L211.3,23.8z"/>
								<path id="Shape_5_" class="st12" d="M217.6,23.8c-0.3,0-0.6-0.2-0.6-0.5V19c0-0.3,0.2-0.5,0.6-0.5s0.6,0.2,0.6,0.5v4.2
									C218.2,23.5,217.9,23.8,217.6,23.8L217.6,23.8z"/>
								<path id="Shape_6_" class="st12" d="M204.9,32.9c-0.3,0-0.6-0.2-0.6-0.5v-4.2c0-0.3,0.2-0.5,0.6-0.5s0.6,0.2,0.6,0.5v4.2
									C205.5,32.7,205.2,32.9,204.9,32.9L204.9,32.9z"/>
								<path id="Shape_7_" class="st12" d="M211.3,32.9c-0.3,0-0.6-0.2-0.6-0.5v-4.2c0-0.3,0.2-0.5,0.6-0.5c0.3,0,0.6,0.2,0.6,0.5
									v4.2C211.8,32.7,211.6,32.9,211.3,32.9L211.3,32.9z"/>
								<path id="Shape_8_" class="st12" d="M217.6,32.9c-0.3,0-0.6-0.2-0.6-0.5v-4.2c0-0.3,0.2-0.5,0.6-0.5s0.6,0.2,0.6,0.5v4.2
									C218.2,32.7,217.9,32.9,217.6,32.9L217.6,32.9z"/>
								<path id="Shape_9_" class="st12" d="M228.2,24.9c-0.3,0-0.6-0.2-0.6-0.5v-4.2c0-0.3,0.2-0.5,0.6-0.5c0.3,0,0.6,0.2,0.6,0.5
									v4.2C228.8,24.7,228.6,24.9,228.2,24.9L228.2,24.9z"/>
								<path id="Shape_10_" class="st12" d="M228.2,32.6c-0.3,0-0.6-0.2-0.6-0.5v-4.2c0-0.3,0.2-0.5,0.6-0.5c0.3,0,0.6,0.2,0.6,0.5
									V32C228.8,32.3,228.6,32.6,228.2,32.6L228.2,32.6z"/>
								<path id="Shape_11_" class="st12" d="M228.2,40.2c-0.3,0-0.6-0.2-0.6-0.5v-4.2c0-0.3,0.2-0.5,0.6-0.5c0.3,0,0.6,0.2,0.6,0.5
									v4.2C228.8,40,228.6,40.2,228.2,40.2L228.2,40.2z"/>
								<g id="Shape_12_" transform="translate(0.000000, 10.955026)">
									<path class="st12" d="M193.1,23.4c-1.6,0-3.3-0.6-4.4-1.6c-1.4-1.3-2.2-3.2-2.2-5.5c0-4.9,5.9-11.3,6.2-11.6
										c0.1-0.1,0.3-0.2,0.4-0.2l0,0c0.2,0,0.3,0.1,0.4,0.2c0.1,0.1,1.6,1.7,3.1,3.9c2.1,3,3.1,5.6,3.1,7.7c0,2.9-1.2,4.6-2.2,5.5
										C196.4,22.8,194.7,23.4,193.1,23.4L193.1,23.4z M193.1,5.9c-1.3,1.6-5.4,6.6-5.4,10.3c0,2,0.6,3.6,1.8,4.6
										c1,0.9,2.3,1.3,3.6,1.3s2.7-0.5,3.6-1.3c1.2-1.1,1.8-2.7,1.8-4.6C198.5,12.5,194.5,7.5,193.1,5.9L193.1,5.9z"/>
									<path class="st12" d="M193.1,34.5c-0.3,0-0.6-0.2-0.6-0.6V16c0-0.3,0.3-0.6,0.6-0.6s0.6,0.2,0.6,0.6v18
										C193.7,34.3,193.4,34.5,193.1,34.5L193.1,34.5z"/>
								</g>
							</g>
						</g>
					</g>
				</g>
			</g>
		</g>
	</g>
</g>
<g id="dollar">
	<g id="Web">
		<g id="Desktop---Step-1_3_" transform="translate(-341.000000, -1795.000000)">
			<g id="Join_2_" transform="translate(2.000000, 1361.000000)">
				<g id="Group_2_" transform="translate(313.000000, 417.000000)">
					<g id="Make-up-to-_x24_20-an-ho-_x2B_-Money">
						<g id="Money">
							<path id="_x24_" class="st0" d="M294.9,57.4v3.7h2.3v-3.7c6.1-0.4,9.8-3.6,9.8-8.3c0-6-4.9-7.7-9.9-9.2V28.5
								c3.3,0.3,4.8,1.8,6.3,4.3l2.2-1.6c-1.5-2.4-3.9-4.8-8.5-5.2v-3.1h-2.3v3.1c-5.7,0.3-9,3.7-9,7.8c0,5.2,4.2,7,9.1,8.4V55
								c-3.7-0.3-5.9-2.1-7.8-4.9l-2.2,1.5C286.3,53.9,289.3,57,294.9,57.4L294.9,57.4z M297.1,54.9V42.8c3.8,1.2,7,2.6,7,6.6
								C304.1,53.3,300.9,54.7,297.1,54.9z M295,28.4v10.9c-3.4-1.1-6.2-2.4-6.2-5.8C288.8,30.9,290.7,28.6,295,28.4z"/>
						</g>
					</g>
				</g>
			</g>
		</g>
	</g>
</g>
<g id="logo">
	<g id="v3-_x2B_-mobile_4_">
		<g id="Desktop---Step-1_4_" transform="translate(-760.000000, -1797.000000)">
			<g id="Join_3_" transform="translate(0.000000, 1361.000000)">
				<g id="Group_3_" transform="translate(315.000000, 417.000000)">
					<g id="ForkKnife-_x2B_-Become-an-employee_x21_-" transform="translate(420.000000, 0.000000)">
						<g id="ForkKnife">
							<g id="LOGO" transform="translate(25.000000, 19.000000)">
								<path id="Fill-9" class="st0" d="M342.4,40.8l-0.2-2.7l-0.8-9.1c-0.1-1.8-0.2-4.9-0.2-5.7l-0.1-5.9l0-0.3V6.8
									c0-0.1,0-0.1-0.1-0.2c-0.4-0.1-1-0.2-1.4-0.2c-1.9,0-3.8,1.3-4.3,3.2c-0.3,1.3-0.2,2.5-0.2,3.8c0,1.1,0,2.2,0,3.3
									c0,0.2,0,0.5,0,0.7c0,0.8,0,1.5,0,2.3c0,1.3,0,2.7-0.1,4c0,1-0.2,2.1,0.4,3.1l0,0c0.4,1,1.2,1.8,2.1,2.2c0,0,0.9,1,0.8,2.5
									c-0.1,0.6-0.1,1.2-0.2,1.8l-1,6.7l0,0.9c0,0.4,0.1,0.7,0.2,1.1c0.4,1,1.3,1.6,2.4,1.6c1.2,0,2.3-0.9,2.6-2.1
									c0-0.2,0.1-0.3,0.1-0.5l0-0.1L342.4,40.8L342.4,40.8z M339.9,33.6L339.9,33.6l0.1,0l0.3,7.1v0.1c0,0.3-0.2,0.5-0.6,0.5
									c-0.3,0-0.6-0.2-0.6-0.5L339.9,33.6L339.9,33.6z M339.3,25.6c0,0.6-0.5,1-1,1c-0.5,0-1-0.4-1.1-1c0-0.7,0-1.5,0-2.2
									c0-1.3,0-2.5,0-3.8c0-2.1,0-4.3,0-6.4c0-1.6-0.2-3.6,1.7-4.2c0.1,0,0.1,0,0.1,0c0,0,0,0,0,0.1v6.2L339.3,25.6L339.3,25.6z"
									/>
								<path id="Fill-10" class="st0" d="M326.2,16.4c0-0.1,0-0.2,0-0.4c0-2.5,0-5-0.1-7.5c0-0.3,0-0.6,0-1c0-0.2-0.1-0.4-0.3-0.4
									h-1.4c-0.1,0-0.3,0.2-0.3,0.4l-0.2,9.1c-0.2,0.3-0.4,0.4-0.6,0.4c-0.1,0-0.2,0-0.2-0.1c-0.2-0.1-0.2-0.4-0.2-0.6l0-0.2
									l-0.1-8.7c0-0.2-0.1-0.4-0.3-0.4h-1.4c-0.1,0-0.3,0.2-0.3,0.4l-0.2,9.1c-0.2,0.3-0.4,0.4-0.6,0.4c-0.2,0-0.4-0.1-0.6-0.4
									l-0.2-9.1c0-0.2-0.1-0.4-0.3-0.4H318c-0.1,0-0.3,0.2-0.3,0.4l-0.1,8.8l0,0.1c0,0.5,0.1,0.9,0.4,1.3c0.5,1.2,1.6,2.1,2.8,2.4
									c-0.1,1.4-0.2,2.8-0.3,4.2c-0.1,1.5-0.3,3.1-0.4,4.6c-0.1,1.4-0.3,2.8-0.4,4.2c-0.1,0.9-0.2,1.9-0.3,2.8
									c-0.1,1.1-0.2,2.1-0.2,3.2c-0.1,1-0.2,2.1,0.5,3c0.6,0.7,1.4,1.2,2.4,1.2c0.9,0,1.6-0.4,2.2-1c0.7-0.7,0.8-1.6,0.7-2.6
									c0-1.2-0.2-2.3-0.3-3.5c-0.1-0.7-0.1-1.4-0.2-2c-0.1-0.6-0.1-1.2-0.2-1.7c-0.3-2.7-0.5-5.5-0.8-8.2
									c-0.1-0.8-0.1-1.5-0.2-2.3c0-0.2-0.2-2-0.2-2C324.9,19.7,326.1,18.1,326.2,16.4L326.2,16.4z M322.1,41.5
									c-0.4,0-0.7-0.4-0.7-0.9l0.5-11.7c0-0.1,0-0.1,0.1-0.1l0.1,0.1l0.7,11.5c0,0.1,0,0.2,0,0.2
									C322.8,41.1,322.5,41.5,322.1,41.5L322.1,41.5z"/>
							</g>
						</g>
					</g>
				</g>
			</g>
		</g>
	</g>
</g>
<g id="m">
	<g id="v3-_x2B_-mobile_5_">
		<g id="Desktop---Step-1_5_" transform="translate(-761.000000, -1946.000000)">
			<g id="Join_4_" transform="translate(0.000000, 1361.000000)">
				<g id="Group_4_" transform="translate(315.000000, 417.000000)">
					<g id="The-best-part_x3F_-Work--_x2B_-M" transform="translate(420.000000, 142.000000)">
						<g id="M_2_">
							<path class="st0" d="M404.5,62.5h3.4V45.8l6.6,16.7h2.9l6.6-16.7v16.7h3.5v-23h-4.6L416,57.2l-6.9-17.7h-4.6V62.5z"/>
						</g>
					</g>
				</g>
			</g>
		</g>
	</g>
</g>
<g id="credit-card">
	<g id="v3-_x2B_-mobile_6_">
		<g id="Desktop---Step-1-Copy-3_1_" transform="translate(-701.000000, -3110.000000)">
			<g id="Payment" transform="translate(106.000000, 2811.000000)">
				<g id="Corporate-Card" transform="translate(422.000000, 275.000000)">
					<g id="Credit-Card" transform="translate(157.000000, 0.000000)">
						<g id="Group_5_" transform="translate(16.000000, 24.000000)">
							<path id="Rectangle-148" class="st1" d="M430.5,11.5h39c1.1,0,2,0.9,2,2v23c0,1.1-0.9,2-2,2h-39c-1.1,0-2-0.9-2-2v-23
								C428.5,12.4,429.4,11.5,430.5,11.5z"/>
							<rect id="Rectangle-149" x="429.5" y="17.5" class="st0" width="41" height="5"/>
							<path id="Rectangle-149-Copy" class="st0" d="M434.5,27.5h16c0.6,0,1,0.4,1,1l0,0c0,0.6-0.4,1-1,1h-16c-0.6,0-1-0.4-1-1l0,0
								C433.5,27.9,433.9,27.5,434.5,27.5z"/>
							<path id="Rectangle-149-Copy-2" class="st0" d="M434.5,31.5h9c0.6,0,1,0.4,1,1l0,0c0,0.6-0.4,1-1,1h-9c-0.6,0-1-0.4-1-1l0,0
								C433.5,31.9,433.9,31.5,434.5,31.5z"/>
						</g>
					</g>
				</g>
			</g>
		</g>
	</g>
</g>
<g id="employees">
	<g id="v3-_x2B_-mobile_7_">
		<g id="Desktop---Step-1-Copy-3_2_" transform="translate(-1119.000000, -3108.000000)">
			<g id="Payment_1_" transform="translate(106.000000, 2811.000000)">
				
					<g id="Employee-paid_x2014_employ-_x2B_-Credit-Card-Copy" transform="translate(841.000000, 275.000000)">
					<g id="employee-icon" transform="translate(156.000000, 0.000000)">
						<g id="employees_1_" transform="translate(16.000000, 22.000000)">
							<path id="Fill-1-Copy" class="st0" d="M523.2,17.3c0,0.1,0.2,0.1,0.3,0.2c0.1,0.1,0.2,0.2,0.2,0.3c0,0.2,0,0.4-0.1,0.6
								c-0.2,0.7-0.5,1.4-1,1.9c-0.1,0.1-0.2,0.2-0.2,0.3c-0.2,0.3-0.2,0.7-0.3,1.1c-0.2,0.5-0.3,0.9-0.5,1.4
								c-0.2,0.3-0.3,0.7-0.5,1c-0.1,0.2-0.3,0.4-0.4,0.6c-0.1,0.2-0.1,0.6-0.1,0.8c0,0.2,0,0.5,0.1,0.7c0.2,0.7,1,0.9,1.6,1.1
								c1.6,0.5,3.3,0.6,4.9,1.1c1.5,0.4,2.9,1.1,3.5,2.6c0.1,0.4,0.2,0.7,0.3,1.1c0.1,0.5,0.1,1.1,0,1.5c-0.2,0.4-0.5,0.7-0.9,0.9
								c-2.1,1.1-4.3,1.9-6.7,2.3c-2.1,0.4-4.2,0.6-6.3,0.6c-2.6,0-5.3-0.2-7.8-0.9c-0.9-0.2-1.7-0.5-2.5-0.8
								c-0.8-0.3-1.6-0.7-2.4-1.1c-0.3-0.1-0.6-0.3-0.8-0.5c-0.3-0.3-0.4-0.6-0.4-1.1c-0.2-4.2,3.4-4.4,6.7-5.2
								c1.2-0.3,3.2-0.6,3.6-1.5c0.1-0.2,0.2-0.7,0.1-1.1c0-0.2-0.4-0.6-0.6-1c-0.4-0.7-0.7-1.3-1-2.1c-0.1-0.4-0.1-0.9-0.3-1.2
								c-0.2-0.4-0.5-0.6-0.7-1c-0.3-0.4-0.5-0.8-0.6-1.2c-0.1-0.2-0.1-0.5-0.1-0.7c0.1-0.3,0.3-0.5,0.6-0.5
								c-0.7-4.3,1.8-7.1,5.6-7.3c1.9-0.1,3.9,0.4,5.3,1.6c1.4,1.3,2,3.1,1.8,4.9C523.3,16.8,523.2,17.2,523.2,17.3
								C523.2,17.3,523.2,17.3,523.2,17.3"/>
							<path id="Fill-1-Copy-2" class="st0" d="M509.3,17.3c0,0.1,0.2,0.1,0.3,0.2c0.1,0.1,0.2,0.2,0.2,0.3c0,0.2,0,0.4-0.1,0.6
								c-0.2,0.7-0.5,1.4-1,1.9c-0.1,0.1-0.2,0.2-0.2,0.3c-0.2,0.3-0.2,0.7-0.3,1.1c-0.2,0.5-0.3,0.9-0.5,1.4
								c-0.2,0.3-0.3,0.7-0.5,1c-0.1,0.2-0.3,0.4-0.4,0.6c-0.1,0.2-0.1,0.6-0.1,0.8c0,0.2,0,0.5,0.1,0.7c0.2,0.7,1,0.9,1.6,1.1
								c1.6,0.5,3.3,0.6,4.9,1.1c1.5,0.4,2.9,1.1,3.5,2.6c0.1,0.4,0.2,0.7,0.3,1.1c0.1,0.5,0.1,1.1,0,1.5c-0.2,0.4-0.5,0.7-0.9,0.9
								c-2.1,1.1-4.3,1.9-6.7,2.3c-2.1,0.4-4.2,0.6-6.3,0.6c-2.6,0-5.3-0.2-7.8-0.9c-0.9-0.2-1.7-0.5-2.5-0.8
								c-0.8-0.3-1.6-0.7-2.4-1.1c-0.3-0.1-0.6-0.3-0.8-0.5c-0.3-0.3-0.4-0.6-0.4-1.1c-0.2-4.2,3.4-4.4,6.7-5.2
								c1.2-0.3,3.2-0.6,3.6-1.5c0.1-0.2,0.2-0.7,0.1-1.1c0-0.2-0.4-0.6-0.6-1c-0.4-0.7-0.7-1.3-1-2.1c-0.1-0.4-0.1-0.9-0.3-1.2
								c-0.2-0.4-0.5-0.6-0.7-1c-0.3-0.4-0.5-0.8-0.6-1.2c-0.1-0.2-0.1-0.5-0.1-0.7c0.1-0.3,0.3-0.5,0.6-0.5
								c-0.7-4.3,1.8-7.1,5.6-7.3c1.9-0.1,3.9,0.4,5.3,1.6c1.4,1.3,2,3.1,1.8,4.9C509.4,16.8,509.2,17.2,509.3,17.3
								C509.3,17.3,509.3,17.3,509.3,17.3"/>
							<path id="Fill-1_3_" class="st13" d="M516.9,18.1c0.1,0.1,0.2,0.1,0.3,0.2c0.1,0.1,0.2,0.2,0.2,0.4c0,0.2,0,0.4-0.1,0.6
								c-0.2,0.8-0.5,1.5-1.1,2.1c-0.1,0.1-0.2,0.2-0.3,0.3c-0.2,0.3-0.2,0.8-0.4,1.2c-0.2,0.5-0.3,1-0.5,1.5
								c-0.2,0.4-0.4,0.8-0.6,1.1c-0.1,0.2-0.3,0.4-0.4,0.6c-0.1,0.3-0.1,0.6-0.1,0.9c0,0.3,0,0.5,0.1,0.8c0.2,0.7,1.1,1,1.7,1.2
								c1.8,0.5,3.6,0.7,5.4,1.2c1.6,0.5,3.2,1.3,3.9,2.9c0.2,0.4,0.3,0.8,0.3,1.3c0.1,0.5,0.1,1.2,0,1.7c-0.2,0.4-0.6,0.7-1,0.9
								c-2.3,1.2-4.7,2.1-7.3,2.6c-2.3,0.4-4.6,0.6-6.9,0.6c-2.9,0-5.8-0.3-8.6-1c-0.9-0.2-1.9-0.5-2.8-0.9
								c-0.9-0.4-1.8-0.8-2.7-1.2c-0.3-0.1-0.6-0.3-0.9-0.5c-0.4-0.3-0.4-0.7-0.4-1.2c-0.2-4.6,3.7-4.8,7.4-5.7
								c1.3-0.3,3.5-0.7,3.9-1.6c0.1-0.3,0.2-0.8,0.1-1.3c-0.1-0.3-0.5-0.7-0.7-1.1c-0.4-0.7-0.8-1.5-1.1-2.4
								c-0.2-0.5-0.2-1-0.3-1.4c-0.2-0.4-0.6-0.7-0.8-1.1c-0.3-0.4-0.5-0.8-0.7-1.3c-0.1-0.2-0.2-0.5-0.1-0.7
								c0.1-0.3,0.3-0.5,0.7-0.5c-0.8-4.7,2-7.8,6.2-8.1c2.1-0.1,4.3,0.4,5.8,1.8c1.6,1.4,2.2,3.4,2,5.4
								C517,17.4,516.8,17.9,516.9,18.1C516.9,18.1,516.9,18.1,516.9,18.1"/>
						</g>
					</g>
				</g>
			</g>
		</g>
	</g>
</g>
<g id="email">
	<g id="v3-_x2B_-mobile_8_">
		<g id="Desktop---Step-1_6_" transform="translate(-543.000000, -2551.000000)">
			<g id="End" transform="translate(0.000000, 2152.000000)">
				<g id="Modal" transform="translate(420.000000, 139.000000)">
					<g id="Email" transform="translate(105.000000, 241.000000)">
						<g id="Email-ICON" transform="translate(18.000000, 19.000000)">
							<path id="Rectangle-6" class="st14" d="M563.8,19h12.4c1,0,1.8,0.8,1.8,1.8v8.4c0,1-0.8,1.8-1.8,1.8h-12.4
								c-1,0-1.8-0.8-1.8-1.8v-8.4C562,19.8,562.8,19,563.8,19z"/>
							<path id="Path-16" class="st15" d="M563,19.8l5.5,6.2c0.7,0.7,1.8,0.8,2.5,0.1l6.3-6.3"/>
						</g>
					</g>
				</g>
			</g>
		</g>
	</g>
</g>
<g id="email-white">
	<g id="v3-_x2B_-mobile_9_">
		<g id="Desktop---Step-1_7_" transform="translate(-543.000000, -486.000000)">
			<g id="Intro_1_" transform="translate(0.000000, 94.000000)">
				<g id="Email_1_" transform="translate(525.000000, 373.000000)">
					<g id="Email-ICON_1_" transform="translate(18.000000, 19.000000)">
						<path id="Rectangle-6_1_" class="st11" d="M623.8,19h12.4c1,0,1.8,0.8,1.8,1.8v8.4c0,1-0.8,1.8-1.8,1.8h-12.4
							c-1,0-1.8-0.8-1.8-1.8v-8.4C622,19.8,622.8,19,623.8,19z"/>
						<path id="Path-16_1_" class="st16" d="M623,19.8l5.5,6.2c0.7,0.7,1.8,0.8,2.5,0.1l6.3-6.3"/>
					</g>
				</g>
			</g>
		</g>
	</g>
</g>
<g id="name">
	<g id="v3-_x2B_-mobile_10_">
		<g id="Desktop---Step-1_8_" transform="translate(-546.000000, -2488.000000)">
			<g id="End_1_" transform="translate(0.000000, 2152.000000)">
				<g id="Modal_1_" transform="translate(420.000000, 139.000000)">
					<g id="Name" transform="translate(105.000000, 181.000000)">
						<g id="Name-ICON" transform="translate(21.000000, 16.000000)">
							<ellipse id="Oval-1" class="st14" cx="690" cy="20.5" rx="3.9" ry="4"/>
							<path id="Oval-1_1_" class="st14" d="M695.5,33.5c0-6.2-2.5-8.1-5.5-8.1s-5.5,2-5.5,8.1H695.5z"/>
						</g>
					</g>
				</g>
			</g>
		</g>
	</g>
</g>
<g id="name-white">
	<g id="v3-_x2B_-mobile_11_">
		<g id="Desktop---Step-1_9_" transform="translate(-546.000000, -423.000000)">
			<g id="Intro_2_" transform="translate(0.000000, 94.000000)">
				<g id="Name_1_" transform="translate(525.000000, 313.000000)">
					<g id="Name-ICON_1_" transform="translate(21.000000, 16.000000)">
						<ellipse id="Oval-1_3_" class="st11" cx="750" cy="20.5" rx="3.9" ry="4"/>
						<path id="Oval-1_2_" class="st11" d="M755.5,33.5c0-6.2-2.5-8.1-5.5-8.1s-5.5,2-5.5,8.1H755.5z"/>
					</g>
				</g>
			</g>
		</g>
	</g>
</g>
</svg>
